# xmcd CD database file
#
# Track frame offsets:
#	150
#	17502
#	42913
#	64142
#	91331
#	109628
#	129188
#	153455
#	176454
#	191684
#	208269
#	230192
#	248044
#	264989
#
# Disc length: 3842 seconds
#
# Revision: 4
# Processed by: cddbd v1.5.2PL0 Copyright (c) Steve Scherf et al.
# Submitted via: CDex 2.12
#
DISCID=b90f000e
DTITLE=Carlos Santana - Guitar Heaven - The Greatest Guitar Classics of All Time - Special Edition
DYEAR=2010
DGENRE=Classic Rock
TTITLE0=Whole Lotta Love - feat. Chris Cornell
TTITLE1=Can't You Hear Me Knocking - feat. Scott Weiland
TTITLE2=Sunshine of Your Love - feat. Rob Thomas
TTITLE3=Whlie My Guitar Gently Weeps - feat. India.Arie and Yo-Yo Ma
TTITLE4=Photograph - feat. Chris Daughtry
TTITLE5=Back in Black - feat. Nas
TTITLE6=Riders on the Storm - feat. Chester Bennington and Ray Manzarek
TTITLE7=Smoke on the Water - feat. Jacoby Shaddix
TTITLE8=Dance the Night Away - feat. Pat Monahan
TTITLE9=Bang a Gong - feat. Gavin Rossdale
TTITLE10=Little Wing - feat. Joe Cocke
TTITLE11=I Ain't Superstitious - feat. Jonny Lang
TTITLE12=Fortunate Son - feat. Scott Stapp - Bonus Track
TTITLE13=Under the Bridge - feat. Andy Vargas - Bonus Track
EXTD=Arista 88697772072\nDeluxe Edition\nIncludes 2 bonus tracks and DVD with exclusive Making Of and Interview\nfootage. YEAR: 2010
EXTT0=By John Bonham, Willie Dixon, John Paul Jones, Jimmy Page, and Robert\nPlant
EXTT1=By Mick Jagger and Keith Richards
EXTT2=By Pete Brown, Jack Bruce, and Eric Clapton
EXTT3=By George Harrison
EXTT4=By Steve Clark, Joe Elliot, Robert John "Mutt" Lange, Rick Savage, and\nPete Willis
EXTT5=By Brian Johnson, Angus Young, and Malcolm Young
EXTT6=By John Densmore, Robbie Krieger, Ray Manzarek, and Jim Morrison
EXTT7=By Ritchie Blackmore, Ian Gillan, Roger Glover, Jon Lord, and Ian Page
EXTT8=By Michael Anthony, David Lee Roth, Alex Van Halen, and Eddie Van\nHalen
EXTT9=By Marc Feld
EXTT10=By Jimi Hendrix
EXTT11=By Willie Dixon
EXTT12=By John Fogerty
EXTT13=By Anthony Kiedis, Michael "Flea" Balzary, Chad Smith, and John\nFrusciante
PLAYORDER=
